<?xml version="1.0" encoding="utf-8"?>
<!-- Generator: Adobe Illustrator 25.0.0, SVG Export Plug-In . SVG Version: 6.00 Build 0)  -->
<svg version="1.1" id="Ebene_1" xmlns="http://www.w3.org/2000/svg" xmlns:xlink="http://www.w3.org/1999/xlink" x="0px" y="0px"
	 viewBox="0 0 500 500" style="enable-background:new 0 0 500 500;" xml:space="preserve">
<style type="text/css">
	.st0{fill:#FFFFFF;}
	.st1{fill:none;stroke:#224B25;stroke-width:1.5147;stroke-miterlimit:10;}
	.st2{fill:#224B25;}
	.st3{fill:#224B25;stroke:#224B25;stroke-width:1.3982;stroke-linecap:round;stroke-linejoin:round;stroke-miterlimit:10;}
	.st4{fill:none;stroke:#224B25;stroke-width:1.1651;stroke-linecap:round;stroke-miterlimit:10;}
	.st5{fill:none;stroke:#224B25;stroke-width:6.0806;stroke-miterlimit:10;}
	.st6{fill:#224B25;stroke:#224B25;stroke-width:5.6129;stroke-linecap:round;stroke-linejoin:round;stroke-miterlimit:10;}
	.st7{fill:none;stroke:#224B25;stroke-width:4.6774;stroke-linecap:round;stroke-miterlimit:10;}
	.st8{fill:none;stroke:#224B25;stroke-width:12;stroke-miterlimit:10;}
	.st9{fill:#224B25;stroke:#224B25;stroke-width:10.8538;stroke-linecap:round;stroke-linejoin:round;stroke-miterlimit:10;}
	.st10{fill:none;stroke:#224B25;stroke-width:11;stroke-linecap:round;stroke-miterlimit:10;}
</style>
<g>
	<circle class="st0" cx="250" cy="250" r="198.27"/>
</g>
<g>
	<circle class="st0" cx="588.13" cy="457.73" r="48.2"/>
	<circle class="st1" cx="588.13" cy="457.73" r="48.2"/>
	<g id="Profile_x5F_Icon_x5F_Current_1_">
		<path class="st2" d="M579,487.5c-0.09,0.42-0.13,0.85-0.1,1.28c0.03,0.43,0.12,0.86,0.27,1.27c0.15,0.41,0.35,0.81,0.6,1.19
			c0.24,0.38,0.53,0.73,0.84,1.06c0.31,0.33,0.66,0.63,1.03,0.91c0.37,0.28,0.75,0.53,1.16,0.75c0.2,0.11,0.41,0.22,0.62,0.31
			c0.21,0.1,0.4,0.18,0.57,0.22c0.08,0.02,0.16,0.02,0.21,0.02c0.05-0.01,0.09-0.02,0.12-0.04c0.02-0.02,0.01,0,0.02-0.03
			c0.01-0.03,0.02-0.1,0.01-0.19c-0.01-0.18-0.07-0.42-0.11-0.66c-0.02-0.12-0.04-0.26-0.06-0.39c-0.01-0.07-0.01-0.14-0.02-0.21
			c0-0.04,0-0.07,0-0.11l0-0.11c0.02-0.5,0.08-1,0.12-1.46c0.04-0.47,0.04-0.88-0.06-1.29c-0.1-0.4-0.29-0.81-0.52-1.2
			c-0.46-0.79-1.03-1.54-1.7-2.12c-0.67-0.59-1.46-1.01-2.28-1.11c-0.32-0.04-0.55-0.33-0.51-0.65c0.04-0.32,0.33-0.55,0.65-0.51
			c0.01,0,0.02,0,0.03,0l0.01,0c0.55,0.09,1.07,0.28,1.54,0.54c0.47,0.26,0.9,0.58,1.28,0.93c0.76,0.71,1.36,1.54,1.86,2.42
			c0.25,0.45,0.47,0.93,0.6,1.47c0.06,0.27,0.1,0.54,0.11,0.81c0.01,0.27-0.01,0.53-0.03,0.78c-0.05,0.5-0.1,0.96-0.12,1.42
			c-0.01,0.19,0.01,0.39,0.05,0.62c0.04,0.23,0.1,0.47,0.12,0.77c0.01,0.15,0.01,0.32-0.05,0.53c-0.03,0.1-0.08,0.21-0.15,0.3
			c-0.07,0.1-0.15,0.18-0.24,0.24c-0.17,0.12-0.37,0.18-0.55,0.21c-0.19,0.02-0.36,0-0.51-0.03c-0.31-0.06-0.56-0.18-0.78-0.28
			c-0.23-0.1-0.45-0.22-0.68-0.34c-0.89-0.48-1.71-1.09-2.43-1.81c-0.36-0.36-0.69-0.76-0.99-1.18c-0.29-0.43-0.54-0.89-0.73-1.38
			c-0.19-0.49-0.33-1.01-0.38-1.54c-0.05-0.53-0.03-1.07,0.06-1.6c0.05-0.32,0.36-0.53,0.67-0.48c0.32,0.05,0.53,0.36,0.48,0.67
			C579.01,487.48,579.01,487.49,579,487.5L579,487.5z"/>
		<path class="st2" d="M595.8,469.02c0.19-0.46,0.49-0.86,0.85-1.18c0.36-0.32,0.79-0.55,1.24-0.69c0.46-0.14,0.95-0.19,1.44-0.11
			c0.49,0.07,0.95,0.28,1.34,0.57c0.77,0.58,1.27,1.46,1.34,2.43c0.01,0.12,0.01,0.24,0,0.36l-0.02,0.18l-0.01,0.09l-0.02,0.09
			c-0.03,0.12-0.05,0.23-0.08,0.35l-0.12,0.34c-0.19,0.44-0.46,0.83-0.78,1.15c-0.64,0.65-1.43,1.05-2.21,1.35
			c-0.4,0.15-0.8,0.26-1.21,0.36c-0.41,0.1-0.8,0.16-1.19,0.24c-0.78,0.15-1.54,0.31-2.24,0.57c-0.7,0.26-1.32,0.63-1.78,1.16l0,0
			c-0.17,0.2-0.47,0.22-0.66,0.05c-0.19-0.17-0.22-0.46-0.05-0.66c0.58-0.69,1.36-1.17,2.15-1.46c0.79-0.3,1.6-0.48,2.38-0.64
			c0.39-0.08,0.79-0.16,1.15-0.25c0.37-0.09,0.73-0.2,1.08-0.34c0.69-0.27,1.35-0.63,1.83-1.13c0.24-0.25,0.43-0.52,0.55-0.82
			l0.08-0.23c0.02-0.08,0.03-0.16,0.05-0.24l0.01-0.06l0-0.06l0.01-0.11c0-0.08,0-0.15-0.01-0.23c-0.03-0.31-0.12-0.62-0.29-0.9
			c-0.16-0.28-0.38-0.53-0.63-0.71c-0.26-0.18-0.54-0.31-0.84-0.35c-0.3-0.04-0.62-0.01-0.93,0.09c-0.3,0.1-0.59,0.26-0.82,0.47
			c-0.23,0.21-0.41,0.47-0.52,0.75l0,0.01c-0.12,0.3-0.46,0.45-0.76,0.33S595.67,469.32,595.8,469.02L595.8,469.02z"/>
		<g>
			<path class="st2" d="M575.05,484.9c0.12-0.35,0.18-0.71,0.18-1.08c0-0.37-0.07-0.76-0.17-1.13c-0.22-0.75-0.62-1.46-1.11-2.08
				c-0.25-0.31-0.53-0.59-0.83-0.84c-0.29-0.24-0.65-0.47-1.01-0.69c-0.72-0.43-1.49-0.82-2.28-1.23c-0.4-0.21-0.79-0.42-1.19-0.66
				c-0.39-0.24-0.78-0.49-1.16-0.78c-0.38-0.29-0.73-0.61-1.05-0.95c-0.17-0.16-0.32-0.34-0.47-0.52c-0.15-0.18-0.3-0.35-0.44-0.54
				c-0.29-0.36-0.54-0.75-0.79-1.14c-0.12-0.2-0.24-0.4-0.35-0.6l-0.16-0.31l-0.15-0.31c-0.05-0.1-0.1-0.21-0.15-0.32l-0.14-0.32
				c-0.08-0.22-0.17-0.44-0.24-0.66c-0.15-0.45-0.26-0.91-0.34-1.39l-0.05-0.36c-0.01-0.12-0.02-0.23-0.03-0.35
				c-0.02-0.23-0.03-0.46-0.04-0.69c-0.01-0.46,0-0.92,0.02-1.38c0.03-0.46,0.07-0.91,0.13-1.36c0.06-0.45,0.14-0.9,0.23-1.34
				c0.18-0.88,0.41-1.76,0.67-2.61c0.12-0.43,0.27-0.85,0.41-1.28c0.15-0.42,0.29-0.84,0.46-1.26c0.63-1.67,1.39-3.29,2.26-4.85
				c0.44-0.78,0.9-1.54,1.39-2.28c0.49-0.74,1.01-1.47,1.55-2.17c0.14-0.18,0.4-0.21,0.57-0.08c0.18,0.13,0.21,0.38,0.09,0.56l0,0
				c-0.5,0.71-0.98,1.44-1.44,2.18c-0.46,0.74-0.88,1.5-1.28,2.27c-0.41,0.77-0.77,1.56-1.12,2.35c-0.35,0.79-0.67,1.6-0.96,2.42
				c-0.15,0.41-0.28,0.82-0.42,1.23c-0.13,0.41-0.25,0.83-0.37,1.25c-0.23,0.83-0.43,1.67-0.59,2.52c-0.08,0.42-0.14,0.84-0.2,1.27
				c-0.05,0.42-0.09,0.85-0.11,1.27c-0.02,0.42-0.02,0.84,0,1.26c0.01,0.21,0.02,0.42,0.04,0.63c0.01,0.1,0.02,0.21,0.03,0.31
				l0.04,0.3c0.07,0.39,0.16,0.79,0.3,1.17c0.06,0.19,0.14,0.38,0.22,0.58l0.13,0.28c0.04,0.09,0.08,0.19,0.13,0.28l0.14,0.28
				l0.15,0.27c0.1,0.18,0.21,0.36,0.32,0.54c0.23,0.35,0.46,0.69,0.72,1.02c0.12,0.17,0.27,0.32,0.4,0.48
				c0.14,0.15,0.28,0.31,0.43,0.45c0.07,0.07,0.14,0.15,0.22,0.22l0.23,0.21c0.07,0.07,0.15,0.13,0.23,0.2l0.12,0.1l0.12,0.09
				c0.32,0.25,0.67,0.48,1.03,0.69c0.36,0.22,0.74,0.42,1.12,0.62c0.77,0.41,1.57,0.81,2.35,1.3c0.39,0.25,0.77,0.5,1.16,0.82
				c0.37,0.32,0.71,0.67,1,1.05c0.29,0.39,0.56,0.79,0.77,1.22c0.06,0.11,0.1,0.22,0.15,0.33c0.05,0.11,0.1,0.22,0.14,0.34
				c0.04,0.11,0.08,0.23,0.12,0.34l0.1,0.35c0.11,0.48,0.18,0.97,0.16,1.48c-0.02,0.51-0.13,1.01-0.34,1.49
				c-0.12,0.29-0.45,0.42-0.74,0.3c-0.28-0.12-0.41-0.43-0.31-0.71L575.05,484.9z"/>
		</g>
		<path class="st2" d="M592,445.01c-1.18-0.77-2.44-1.42-3.73-1.99c-1.29-0.57-2.63-1.05-3.99-1.44c-1.36-0.39-2.74-0.69-4.14-0.85
			c-0.7-0.08-1.4-0.13-2.09-0.14c-0.17,0-0.35,0-0.52,0c-0.17,0-0.35,0.01-0.52,0.02c-0.35,0.02-0.69,0.05-1.02,0.1
			c-1.33,0.21-2.59,0.78-3.67,1.6c-0.54,0.41-1.05,0.88-1.51,1.39c-0.23,0.26-0.46,0.52-0.68,0.79c-0.11,0.14-0.22,0.27-0.32,0.41
			l-0.15,0.21l-0.14,0.21c-0.74,1.13-1.21,2.44-1.42,3.79c-0.21,1.35-0.17,2.74,0.13,4.06l0,0c0.07,0.31-0.13,0.63-0.44,0.7
			c-0.31,0.07-0.63-0.13-0.7-0.44l0,0c-0.32-1.48-0.37-3.01-0.12-4.5c0.25-1.49,0.79-2.94,1.63-4.21l0.16-0.24l0.17-0.23
			c0.12-0.15,0.24-0.3,0.35-0.44c0.23-0.28,0.47-0.57,0.73-0.84c0.51-0.55,1.06-1.06,1.66-1.51c0.6-0.45,1.26-0.85,1.96-1.15
			c0.7-0.3,1.44-0.52,2.19-0.64c0.38-0.06,0.75-0.09,1.12-0.11c0.19-0.01,0.37-0.02,0.56-0.02c0.19-0.01,0.37,0,0.56,0
			c0.74,0.01,1.48,0.07,2.2,0.17c1.46,0.19,2.89,0.51,4.28,0.93c2.79,0.84,5.49,2.02,7.92,3.65c0.2,0.13,0.25,0.4,0.12,0.6
			C592.46,445.08,592.2,445.14,592,445.01L592,445.01z"/>
		<path class="st2" d="M597.41,448.48c0.6,0.45,1.09,0.97,1.57,1.51c0.47,0.54,0.9,1.11,1.31,1.7c0.81,1.18,1.5,2.44,2.04,3.78
			c0.53,1.34,0.92,2.76,0.98,4.25c0.03,0.74-0.02,1.49-0.17,2.23c-0.15,0.74-0.41,1.46-0.76,2.13c-0.15,0.28-0.5,0.39-0.79,0.24
			c-0.28-0.15-0.39-0.5-0.24-0.79c0,0,0-0.01,0.01-0.01l0-0.01c0.32-0.56,0.56-1.17,0.71-1.8c0.15-0.63,0.22-1.29,0.21-1.96
			c-0.01-1.33-0.32-2.67-0.79-3.96c-0.47-1.28-1.09-2.52-1.84-3.68c-0.37-0.58-0.77-1.14-1.21-1.68c-0.43-0.53-0.9-1.05-1.41-1.46
			l-0.01-0.01c-0.14-0.11-0.16-0.31-0.05-0.44C597.08,448.4,597.28,448.38,597.41,448.48z"/>
		<path class="st2" d="M596.22,428.83c-0.86-3.83-3.41-7.27-6.83-9.19c-1.71-0.96-3.63-1.52-5.57-1.55
			c-1.95-0.04-3.9,0.39-5.66,1.23c-1.76,0.84-3.32,2.09-4.44,3.66c-0.28,0.39-0.53,0.81-0.75,1.23c-0.22,0.42-0.4,0.86-0.55,1.32
			c-0.3,0.91-0.45,1.87-0.49,2.84c-0.07,1.93,0.36,3.89,1.21,5.62c0.85,1.73,2.16,3.24,3.79,4.23c0.31,0.19,0.41,0.59,0.22,0.9
			c-0.19,0.31-0.59,0.41-0.9,0.22l0,0c-0.92-0.57-1.76-1.28-2.47-2.1c-0.71-0.81-1.31-1.72-1.78-2.69
			c-0.94-1.93-1.39-4.08-1.31-6.23c0.04-1.07,0.22-2.14,0.57-3.17c0.17-0.51,0.38-1.02,0.63-1.5c0.26-0.48,0.53-0.94,0.85-1.37
			c1.26-1.75,2.99-3.12,4.92-4.02c1.93-0.91,4.06-1.37,6.19-1.31c0.53,0.01,1.07,0.06,1.59,0.14c0.53,0.08,1.05,0.2,1.56,0.35
			c0.51,0.15,1.01,0.33,1.5,0.53c0.25,0.1,0.48,0.22,0.73,0.33c0.24,0.12,0.47,0.24,0.7,0.38c1.85,1.05,3.44,2.5,4.69,4.2
			c1.25,1.7,2.16,3.66,2.61,5.73c0.06,0.28-0.12,0.56-0.4,0.62C596.56,429.28,596.28,429.11,596.22,428.83L596.22,428.83z"/>
		<path class="st2" d="M594.56,419.47c1.41-0.67,2.93-1.1,4.47-1.29c1.54-0.19,3.11-0.14,4.64,0.13c1.53,0.27,3.02,0.76,4.4,1.47
			c1.39,0.71,2.67,1.63,3.76,2.75c1.09,1.12,1.99,2.42,2.67,3.82c0.68,1.4,1.14,2.91,1.38,4.44c0.24,1.54,0.25,3.11,0.03,4.66
			c-0.22,1.54-0.68,3.06-1.39,4.46l0,0c-0.15,0.29-0.5,0.4-0.78,0.26c-0.29-0.15-0.4-0.5-0.26-0.78l0,0
			c1.31-2.56,1.72-5.56,1.29-8.42c-0.43-2.86-1.7-5.61-3.71-7.68c-2.01-2.07-4.72-3.43-7.57-3.95c-2.85-0.52-5.87-0.2-8.49,1.03
			c-0.25,0.12-0.55,0.01-0.67-0.24C594.2,419.89,594.31,419.59,594.56,419.47z"/>
		<g>
			<path class="st2" d="M575.75,439.73c0.37-0.58,0.74-1.19,1.14-1.78c0.4-0.6,0.82-1.18,1.31-1.73c0.49-0.55,1.04-1.07,1.67-1.49
				c0.64-0.42,1.37-0.74,2.14-0.88l0,0c0.32-0.06,0.62,0.15,0.68,0.47c0.06,0.32-0.15,0.62-0.47,0.68c-0.01,0-0.01,0-0.02,0
				c-0.61,0.09-1.2,0.33-1.75,0.66c-0.55,0.34-1.05,0.77-1.5,1.26c-0.46,0.49-0.88,1.03-1.28,1.59c-0.4,0.56-0.78,1.15-1.18,1.74
				c-0.14,0.2-0.42,0.26-0.63,0.11C575.67,440.21,575.61,439.93,575.75,439.73L575.75,439.73z"/>
			<path class="st2" d="M592.4,436.74c-0.77-0.45-1.57-0.86-2.39-1.19c-0.82-0.33-1.67-0.58-2.54-0.73
				c-0.86-0.15-1.74-0.21-2.62-0.18c-0.88,0.03-1.76,0.16-2.63,0.34c-0.31,0.07-0.62-0.14-0.69-0.45s0.14-0.62,0.45-0.69
				c0,0,0.01,0,0.01,0l0,0c0.93-0.17,1.87-0.28,2.82-0.29c0.95-0.01,1.91,0.07,2.84,0.26c0.93,0.19,1.84,0.48,2.71,0.85
				c0.87,0.37,1.7,0.82,2.49,1.31c0.21,0.13,0.28,0.41,0.15,0.62C592.88,436.8,592.61,436.87,592.4,436.74L592.4,436.74z"/>
		</g>
		<path class="st2" d="M576.93,485.23c-0.85,0.41-1.69,0.81-2.45,1.27c-0.76,0.47-1.46,1.02-1.91,1.72
			c-0.11,0.17-0.21,0.35-0.29,0.54c-0.08,0.19-0.15,0.4-0.2,0.61c-0.12,0.43-0.2,0.88-0.29,1.34c-0.1,0.47-0.2,0.95-0.4,1.43
			c-0.05,0.12-0.1,0.24-0.16,0.36c-0.03,0.06-0.06,0.12-0.1,0.18l-0.05,0.09l-0.01,0.02c0,0.01,0,0,0,0.01c0,0,0,0.01-0.01,0.01
			c-0.02,0.04-0.02,0.11,0.02,0.16c0.02,0.02,0.04,0.04,0.07,0.05c0.01,0,0,0,0.02,0.01l0.04,0.01l0.08,0.02
			c0.05,0.01,0.1,0.02,0.16,0.03c0.21,0.04,0.43,0.06,0.64,0.07c0.22,0.01,0.44,0.01,0.66,0c0.22-0.01,0.45-0.03,0.66-0.05
			c0.43-0.06,0.85-0.16,1.24-0.32c0.2-0.08,0.38-0.17,0.56-0.28c0.09-0.05,0.18-0.11,0.26-0.17c0.04-0.03,0.08-0.06,0.12-0.09
			c0.02-0.02,0.04-0.03,0.06-0.05l0.05-0.04c0.26-0.24,0.48-0.62,0.66-1.01c0.18-0.39,0.33-0.82,0.45-1.25
			c0.12-0.43,0.21-0.87,0.27-1.31c0.03-0.22,0.05-0.44,0.06-0.65c0.01-0.21,0-0.43-0.03-0.55l0,0c-0.07-0.31,0.12-0.63,0.44-0.7
			c0.31-0.07,0.63,0.12,0.7,0.44c0,0.01,0.01,0.03,0.01,0.04c0.05,0.34,0.03,0.59,0.01,0.85c-0.02,0.26-0.06,0.5-0.1,0.75
			c-0.09,0.49-0.21,0.96-0.35,1.43c-0.15,0.47-0.32,0.93-0.54,1.38c-0.11,0.23-0.23,0.45-0.38,0.67c-0.15,0.22-0.31,0.43-0.54,0.63
			c-0.83,0.7-1.83,1.04-2.83,1.16c-0.25,0.03-0.5,0.05-0.74,0.05c-0.25,0.01-0.5,0.01-0.75-0.01c-0.25-0.02-0.5-0.05-0.75-0.09
			c-0.06-0.01-0.12-0.02-0.19-0.04l-0.09-0.02l-0.05-0.01c-0.01,0-0.05-0.01-0.07-0.02c-0.2-0.06-0.38-0.18-0.51-0.34
			c-0.13-0.16-0.22-0.35-0.24-0.55c-0.03-0.2,0-0.42,0.1-0.6l0.04-0.07l0.03-0.05l0.04-0.06c0.02-0.04,0.05-0.09,0.07-0.13
			c0.05-0.09,0.09-0.19,0.13-0.28c0.15-0.39,0.25-0.83,0.34-1.28c0.09-0.45,0.17-0.92,0.3-1.4c0.06-0.24,0.14-0.48,0.23-0.72
			c0.1-0.24,0.22-0.48,0.35-0.71c0.27-0.45,0.62-0.84,0.99-1.18c0.37-0.34,0.77-0.63,1.18-0.9c0.81-0.54,1.67-0.98,2.48-1.43l0,0
			c0.28-0.16,0.64-0.06,0.79,0.22c0.16,0.28,0.06,0.64-0.22,0.79C576.95,485.22,576.94,485.22,576.93,485.23z"/>
		<g>
			<circle class="st3" cx="578.14" cy="485.62" r="1.68"/>
		</g>
		<path class="st2" d="M602.77,459.47c0.68-0.52,1.32-1.09,1.89-1.72c0.58-0.63,1.09-1.31,1.5-2.05c0.4-0.74,0.69-1.53,0.77-2.36
			c0.08-0.82-0.06-1.65-0.4-2.42l0,0c-0.07-0.16,0-0.35,0.16-0.42c0.16-0.07,0.34,0,0.41,0.15c0.21,0.42,0.37,0.87,0.47,1.33
			c0.1,0.46,0.14,0.94,0.12,1.42c-0.04,0.95-0.33,1.87-0.73,2.71c-0.41,0.84-0.93,1.61-1.52,2.32c-0.59,0.71-1.24,1.36-1.95,1.95
			c-0.25,0.21-0.61,0.18-0.82-0.07c-0.21-0.25-0.18-0.61,0.07-0.82C602.75,459.48,602.76,459.48,602.77,459.47L602.77,459.47z"/>
		<path class="st2" d="M613.32,438.86c2.9,0.75,5.48,2.61,7.1,5.13c0.39,0.64,0.74,1.3,1.01,2.01c0.26,0.71,0.46,1.44,0.56,2.18
			c0.03,0.19,0.04,0.37,0.06,0.56l0.03,0.28l0.01,0.28c0,0.19,0.01,0.38,0.01,0.56l-0.03,0.56c0,0.09-0.01,0.19-0.02,0.28
			l-0.03,0.28l-0.03,0.28c-0.01,0.09-0.03,0.18-0.05,0.28c-0.04,0.18-0.07,0.37-0.11,0.55l-0.14,0.54l-0.04,0.14l-0.04,0.13
			l-0.09,0.27c-0.06,0.18-0.12,0.36-0.19,0.53c-0.07,0.17-0.14,0.35-0.22,0.52l-0.25,0.5c-0.08,0.17-0.18,0.33-0.28,0.49
			c-0.1,0.16-0.19,0.33-0.3,0.48c-0.11,0.15-0.21,0.31-0.32,0.46l-0.36,0.44c-0.11,0.15-0.25,0.28-0.38,0.42
			c-0.13,0.14-0.26,0.28-0.4,0.4l-0.42,0.38l-0.45,0.34c-0.15,0.12-0.31,0.21-0.47,0.32l-0.24,0.15c-0.08,0.05-0.16,0.09-0.24,0.14
			c-0.16,0.09-0.33,0.18-0.49,0.27l-0.51,0.24l-0.13,0.06l-0.13,0.05l-0.26,0.1l-0.26,0.1c-0.09,0.03-0.18,0.06-0.27,0.09
			c-0.18,0.05-0.36,0.11-0.54,0.16l-0.55,0.13l-0.14,0.03l-0.14,0.02l-0.28,0.05l-0.28,0.05c-0.09,0.02-0.19,0.02-0.28,0.03
			c-0.19,0.02-0.37,0.04-0.56,0.05l-0.56,0.02l-0.14,0l-0.14-0.01l-0.28-0.01l-0.28-0.01c-0.09-0.01-0.19-0.02-0.28-0.03
			c-0.19-0.03-0.38-0.04-0.56-0.08l-0.56-0.11c-0.74-0.18-1.46-0.46-2.12-0.84c-0.26-0.15-0.36-0.48-0.21-0.75
			c0.15-0.26,0.48-0.36,0.75-0.21l0.01,0.01c0.57,0.32,1.19,0.56,1.83,0.72l0.49,0.1c0.16,0.03,0.33,0.04,0.49,0.06
			c0.08,0.01,0.17,0.02,0.25,0.03l0.25,0.01l0.25,0.01l0.13,0.01l0.13,0l0.5-0.02c0.17-0.01,0.33-0.03,0.5-0.05
			c0.08-0.01,0.17-0.01,0.25-0.03l0.25-0.04l0.25-0.04l0.12-0.02l0.12-0.03l0.49-0.12c0.16-0.04,0.32-0.1,0.48-0.15
			c0.08-0.03,0.16-0.05,0.24-0.08l0.24-0.09l0.24-0.09l0.12-0.05l0.11-0.05l0.46-0.21c0.15-0.08,0.29-0.16,0.44-0.24
			c0.07-0.04,0.15-0.08,0.22-0.12l0.21-0.14c0.14-0.09,0.29-0.18,0.42-0.28l0.4-0.3l0.37-0.33c0.13-0.11,0.24-0.23,0.35-0.35
			c0.11-0.12,0.24-0.24,0.34-0.37l0.32-0.39l0.29-0.41c0.1-0.13,0.18-0.28,0.27-0.43c0.08-0.15,0.18-0.28,0.25-0.44l0.22-0.45
			c0.07-0.15,0.13-0.31,0.19-0.47c0.07-0.15,0.12-0.31,0.17-0.47l0.08-0.24l0.04-0.12l0.03-0.12l0.13-0.49
			c0.04-0.16,0.06-0.33,0.09-0.5c0.01-0.08,0.03-0.16,0.04-0.25l0.03-0.25l0.03-0.25c0.01-0.08,0.02-0.17,0.02-0.25l0.02-0.5
			c0.01-0.17-0.01-0.34-0.01-0.5l-0.01-0.25l-0.02-0.25c-0.02-0.17-0.03-0.33-0.05-0.5c-0.09-0.66-0.27-1.31-0.5-1.94
			c-0.24-0.63-0.55-1.22-0.91-1.79c-1.45-2.27-3.81-3.96-6.42-4.62l0,0c-0.31-0.08-0.5-0.4-0.42-0.71
			C612.69,438.97,613.01,438.78,613.32,438.86L613.32,438.86z"/>
		<path class="st2" d="M598.5,480.09c2.06,3.28,4.1,6.58,6.01,9.97c0.48,0.85,0.94,1.7,1.39,2.57c0.45,0.86,0.89,1.73,1.31,2.61
			c0.85,1.75,1.66,3.51,2.46,5.28c0.13,0.29,0,0.64-0.29,0.77c-0.29,0.13-0.64,0-0.77-0.29l0,0c-0.79-1.76-1.59-3.52-2.42-5.26
			c-0.41-0.87-0.85-1.73-1.28-2.59c-0.44-0.85-0.9-1.7-1.36-2.54c-1.87-3.37-3.89-6.66-5.93-9.95l0,0
			c-0.15-0.25-0.08-0.57,0.17-0.72C598.03,479.77,598.35,479.84,598.5,480.09z"/>
		<g>
			<path class="st4" d="M574.03,493.66c-0.67,3.22-1.96,6.09-3.25,9.13"/>
		</g>
		<path class="st2" d="M583.99,484.55c2.28-0.38,4.5-1.1,6.56-2.12c2.06-1.03,3.97-2.36,5.61-3.95c0.23-0.22,0.6-0.22,0.82,0.01
			c0.22,0.23,0.22,0.6-0.01,0.82c0,0-0.01,0.01-0.01,0.01c-1.78,1.63-3.81,2.97-5.98,3.98c-2.17,1.01-4.5,1.7-6.86,2.03
			c-0.22,0.03-0.42-0.12-0.45-0.34C583.63,484.79,583.78,484.59,583.99,484.55z"/>
	</g>
	<g>
		<g>
			
				<ellipse transform="matrix(0.3491 -0.9371 0.9371 0.3491 -56.2221 835.0515)" class="st2" cx="572.98" cy="458" rx="2.44" ry="1.43"/>
		</g>
		<g>
			
				<ellipse transform="matrix(0.3491 -0.9371 0.9371 0.3491 -50.8471 850.5873)" class="st2" cx="586.86" cy="461.9" rx="2.44" ry="1.43"/>
		</g>
	</g>
	<path class="st2" d="M573.16,447.77c2.55-0.31,5.15-0.14,7.65,0.47c2.5,0.61,4.89,1.68,7.01,3.15c4.24,2.94,7.35,7.47,8.57,12.5
		c0.07,0.28-0.1,0.56-0.39,0.63s-0.56-0.1-0.63-0.39c0,0,0-0.01,0-0.01c-1.1-4.79-4.02-9.17-8.05-12.03
		c-2.01-1.43-4.3-2.48-6.7-3.11c-2.4-0.63-4.91-0.83-7.38-0.56c-0.18,0.02-0.35-0.11-0.36-0.29
		C572.85,447.95,572.98,447.79,573.16,447.77z"/>
</g>
<circle class="st5" cx="-284.26" cy="248.65" r="193.48"/>
<g id="Profile_x5F_Icon_x5F_Current_4_">
	<g>
		<path class="st2" d="M-320.91,368.15c-0.78,3.37-0.51,6.92,0.67,10.24c1.21,3.31,3.26,6.37,5.78,9.01
			c2.53,2.64,5.54,4.86,8.77,6.65c0.81,0.45,1.63,0.87,2.47,1.26c0.84,0.41,1.63,0.73,2.3,0.87c0.69,0.15,1.11,0.05,1.33-0.09
			c0.07-0.07,0.04-0.01,0.08-0.14c0.04-0.12,0.06-0.41,0.03-0.77c-0.11-1.51-0.84-3.59-0.74-5.97c0.07-2.01,0.3-4.01,0.46-5.88
			c0.16-1.87,0.15-3.54-0.25-5.16c-0.38-1.63-1.17-3.23-2.08-4.81c-1.86-3.17-4.13-6.16-6.82-8.52c-2.69-2.35-5.84-4.03-9.14-4.44
			c-1.28-0.16-2.19-1.33-2.03-2.61c0.16-1.28,1.33-2.19,2.61-2.03c0.02,0,0.05,0.01,0.07,0.01l0.02,0c4.42,0.72,8.29,3.06,11.32,5.9
			c3.06,2.85,5.48,6.16,7.46,9.71c0.98,1.79,1.89,3.73,2.39,5.88c0.26,1.07,0.38,2.18,0.43,3.27c0.03,1.09-0.04,2.13-0.12,3.13
			c-0.19,1.99-0.41,3.85-0.49,5.71c-0.05,0.76,0.06,1.56,0.22,2.47c0.15,0.91,0.39,1.87,0.48,3.07c0.04,0.6,0.05,1.29-0.19,2.11
			c-0.21,0.81-0.83,1.7-1.56,2.18c-0.7,0.48-1.47,0.74-2.22,0.83c-0.75,0.09-1.43,0.01-2.05-0.11c-1.23-0.26-2.24-0.71-3.15-1.13
			c-0.92-0.42-1.83-0.88-2.72-1.36c-3.56-1.93-6.86-4.37-9.76-7.26c-2.89-2.9-5.36-6.34-6.9-10.3c-0.76-1.97-1.31-4.06-1.53-6.2
			c-0.21-2.14-0.13-4.32,0.23-6.44l0-0.01c0.22-1.27,1.43-2.13,2.7-1.91c1.27,0.22,2.13,1.43,1.91,2.7
			C-320.89,368.06-320.9,368.11-320.91,368.15z"/>
	</g>
	<g>
		<path class="st2" d="M-253.5,293.95c0.75-1.86,1.95-3.47,3.4-4.75c1.46-1.26,3.16-2.21,4.99-2.79c1.83-0.57,3.81-0.74,5.76-0.46
			c1.96,0.3,3.82,1.14,5.37,2.28c3.08,2.33,5.09,5.87,5.37,9.76c0.06,0.96,0.02,1.97-0.17,2.91c-0.1,0.47-0.19,0.94-0.32,1.4
			l-0.48,1.35c-0.74,1.76-1.86,3.32-3.14,4.61c-5.24,5.13-12.3,6.74-18.51,7.85c-3.12,0.6-6.17,1.24-8.98,2.27
			c-2.81,1.02-5.3,2.54-7.13,4.67l-0.02,0.02c-0.68,0.79-1.87,0.88-2.66,0.2c-0.78-0.67-0.88-1.85-0.22-2.64
			c2.32-2.79,5.48-4.68,8.65-5.88c3.19-1.21,6.43-1.91,9.57-2.56c1.56-0.33,3.16-0.63,4.62-0.99c1.47-0.37,2.93-0.81,4.33-1.35
			c2.77-1.1,5.43-2.55,7.33-4.54c0.95-0.99,1.71-2.09,2.2-3.29l0.31-0.91c0.08-0.31,0.13-0.63,0.2-0.94
			c0.12-0.62,0.13-1.23,0.09-1.86c-0.19-2.51-1.64-5-3.69-6.49c-1.03-0.73-2.18-1.23-3.39-1.4c-1.22-0.16-2.5-0.04-3.72,0.35
			c-1.21,0.41-2.36,1.06-3.3,1.9c-0.93,0.86-1.66,1.89-2.11,3l-0.01,0.04c-0.48,1.2-1.84,1.79-3.04,1.31s-1.79-1.84-1.31-3.04
			L-253.5,293.95z"/>
	</g>
	<g>
		<g>
			<path class="st2" d="M-336.79,357.72c0.49-1.39,0.71-2.85,0.74-4.35c0.02-1.5-0.27-3.04-0.68-4.54c-0.89-3-2.46-5.86-4.46-8.35
				c-1.01-1.24-2.14-2.36-3.34-3.37c-1.18-0.95-2.62-1.89-4.04-2.75c-2.88-1.74-5.99-3.3-9.16-4.97c-3.16-1.67-6.4-3.46-9.42-5.79
				c-3.05-2.34-5.63-5.07-7.91-8.03c-2.28-2.95-4.25-6.12-5.86-9.5c-1.61-3.37-2.84-6.98-3.45-10.79
				c-1.02-7.51-0.34-14.84,1.06-21.97c0.73-3.55,1.64-7.05,2.68-10.48c1.02-3.44,2.18-6.84,3.46-10.19
				c5.07-13.43,12.2-26.03,20.89-37.37c0.55-0.72,1.59-0.86,2.31-0.3c0.71,0.54,0.85,1.55,0.33,2.27
				c-8.15,11.36-14.58,23.88-19.27,36.97c-1.17,3.27-2.22,6.59-3.14,9.95c-0.94,3.35-1.73,6.72-2.35,10.1
				c-0.62,3.38-1.06,6.78-1.22,10.17c-0.07,1.69-0.09,3.39-0.02,5.07c0.09,1.66,0.2,3.41,0.47,4.95c0.54,3.16,1.64,6.31,3.11,9.28
				c1.46,2.98,3.27,5.83,5.35,8.44c1.03,1.31,2.13,2.56,3.3,3.73c1.16,1.19,2.37,2.28,3.66,3.27c2.58,2,5.54,3.66,8.61,5.3
				c3.07,1.64,6.3,3.23,9.45,5.18c1.57,1.01,3.09,2.02,4.63,3.31c1.48,1.29,2.82,2.7,4.02,4.22c2.36,3.06,4.21,6.54,5.15,10.37
				c0.45,1.92,0.74,3.91,0.64,5.94c-0.09,2.03-0.54,4.07-1.35,5.98c-0.49,1.16-1.82,1.7-2.98,1.21c-1.11-0.47-1.66-1.72-1.26-2.85
				L-336.79,357.72z"/>
		</g>
	</g>
	<g>
		<path class="st2" d="M-268.75,197.56c-4.73-3.08-9.78-5.72-14.98-7.99c-5.19-2.29-10.55-4.23-16.01-5.8
			c-5.45-1.56-11.01-2.75-16.61-3.43c-5.58-0.66-11.28-0.82-16.67-0.04c-5.35,0.83-10.4,3.12-14.75,6.43
			c-2.18,1.65-4.2,3.54-6.07,5.58c-1.86,2.05-3.7,4.26-5.15,6.49c-2.96,4.55-4.87,9.79-5.69,15.19c-0.82,5.41-0.68,10.98,0.5,16.32
			l0,0.01c0.28,1.26-0.52,2.51-1.78,2.79c-1.26,0.28-2.51-0.52-2.79-1.78l0-0.01c-1.28-5.93-1.47-12.08-0.47-18.06
			c0.97-5.98,3.16-11.8,6.55-16.88c1.74-2.57,3.62-4.8,5.63-7.01c2.03-2.19,4.25-4.26,6.68-6.08c4.83-3.66,10.61-6.26,16.68-7.17
			c6.04-0.83,11.97-0.56,17.82,0.18c5.85,0.76,11.59,2.05,17.2,3.72c11.21,3.36,22.03,8.1,31.81,14.66c0.79,0.53,1.01,1.61,0.47,2.4
			c-0.53,0.79-1.59,1-2.38,0.49L-268.75,197.56z"/>
	</g>
	<g>
		<path class="st2" d="M-247,211.49c2.4,1.81,4.38,3.91,6.29,6.08c1.89,2.18,3.63,4.47,5.25,6.84c3.25,4.74,6.03,9.81,8.19,15.19
			c2.14,5.37,3.68,11.1,3.93,17.05c0.28,5.92-0.86,12.09-3.75,17.49c-0.61,1.14-2.03,1.57-3.17,0.96c-1.14-0.61-1.57-2.03-0.96-3.17
			c0.01-0.02,0.03-0.05,0.04-0.06c2.59-4.5,3.78-9.76,3.7-15.1c-0.05-5.35-1.29-10.73-3.15-15.88c-1.88-5.16-4.39-10.12-7.38-14.78
			c-1.49-2.33-3.1-4.59-4.84-6.73c-1.74-2.12-3.61-4.2-5.67-5.85l-0.03-0.02c-0.55-0.44-0.63-1.23-0.19-1.78
			C-248.32,211.18-247.55,211.08-247,211.49z"/>
	</g>
	<g>
		<path class="st2" d="M-251.81,132.61c-3.44-15.39-13.7-29.2-27.42-36.89c-6.85-3.85-14.55-6.1-22.36-6.24
			c-7.81-0.17-15.67,1.57-22.73,4.93c-7.06,3.36-13.33,8.39-17.82,14.7c-2.25,3.16-4.05,6.57-5.22,10.23
			c-1.19,3.65-1.83,7.51-1.97,11.38c-0.27,7.75,1.42,15.61,4.86,22.56c3.42,6.95,8.66,12.99,15.2,16.98
			c1.24,0.75,1.63,2.37,0.87,3.6c-0.75,1.24-2.37,1.63-3.6,0.87l-0.01-0.01c-7.45-4.59-13.3-11.46-17.05-19.2
			c-3.77-7.75-5.59-16.39-5.25-25c0.18-4.3,0.9-8.6,2.27-12.73c1.35-4.14,3.43-8.04,5.95-11.53c5.06-7.02,12.01-12.5,19.75-16.13
			c7.74-3.64,16.31-5.49,24.87-5.25c8.58,0.2,17.05,2.74,24.44,6.95c14.82,8.45,25.67,23.25,29.31,39.87
			c0.25,1.13-0.47,2.24-1.6,2.49C-250.44,134.45-251.56,133.73-251.81,132.61L-251.81,132.61z"/>
	</g>
	<g>
		<path class="st2" d="M-258.45,95.06c11.32-5.41,24.31-6.8,36.56-4.63c12.25,2.17,23.98,7.93,32.78,16.94
			c8.8,9,14.33,20.87,16.23,33.19c1.91,12.32,0.23,25.32-5.46,36.59c-0.58,1.15-1.99,1.62-3.14,1.04s-1.62-1.99-1.04-3.14l0.01-0.01
			c5.26-10.28,6.89-22.32,5.16-33.79c-1.71-11.47-6.82-22.52-14.88-30.83c-8.05-8.32-18.95-13.77-30.4-15.84
			c-11.44-2.09-23.58-0.82-34.08,4.15c-1.01,0.48-2.22,0.05-2.7-0.96C-259.88,96.74-259.46,95.53-258.45,95.06z"/>
	</g>
	<g>
		<g>
			<path class="st2" d="M-333.98,176.37c2.99-4.67,5.91-9.69,9.82-14.11c1.95-2.21,4.16-4.28,6.72-5.97
				c2.55-1.7,5.48-2.97,8.59-3.56c1.27-0.24,2.49,0.6,2.73,1.87c0.24,1.27-0.6,2.49-1.87,2.73c-0.02,0-0.05,0.01-0.07,0.01
				c-2.46,0.39-4.82,1.31-7.01,2.67c-2.19,1.35-4.19,3.1-6.03,5.05c-1.84,1.96-3.53,4.11-5.13,6.36c-1.61,2.25-3.13,4.6-4.76,6.96
				c-0.57,0.82-1.69,1.03-2.51,0.46c-0.8-0.55-1.02-1.64-0.5-2.46L-333.98,176.37z"/>
			<path class="st2" d="M-267.12,164.38c-6.19-3.65-12.84-6.49-19.79-7.7c-6.95-1.26-14.09-0.84-21.07,0.65
				c-1.26,0.27-2.51-0.54-2.78-1.8c-0.27-1.26,0.54-2.51,1.8-2.78c0.02,0,0.03-0.01,0.05-0.01l0.02,0
				c3.72-0.69,7.51-1.13,11.34-1.18c3.82-0.06,7.67,0.28,11.42,1.04c7.53,1.51,14.54,4.73,20.9,8.69c0.85,0.53,1.11,1.64,0.58,2.49
				C-265.19,164.61-266.27,164.88-267.12,164.38L-267.12,164.38z"/>
		</g>
	</g>
	<g>
		<path class="st2" d="M-329.24,359.03c-3.43,1.65-6.77,3.24-9.86,5.11c-3.05,1.89-5.86,4.11-7.67,6.91
			c-1.83,2.7-2.37,6.33-3.15,10.04c-0.4,1.87-0.81,3.81-1.6,5.75c-0.18,0.48-0.41,0.96-0.65,1.44c-0.11,0.24-0.26,0.47-0.39,0.71
			l-0.29,0.5c-0.1,0.17-0.07,0.46,0.1,0.65c0.08,0.1,0.18,0.15,0.29,0.18c0,0,0.11,0.03,0.22,0.06l0.31,0.07l0.63,0.12
			c0.85,0.15,1.71,0.25,2.58,0.3c1.73,0.1,3.57,0.02,5.29-0.19c1.73-0.22,3.41-0.64,4.98-1.27c1.55-0.61,3.07-1.55,4.21-2.57
			c1.03-0.96,1.92-2.49,2.64-4.05c0.72-1.58,1.32-3.28,1.79-5.01c0.47-1.73,0.84-3.5,1.09-5.26c0.12-0.88,0.22-1.76,0.25-2.6
			c0.04-0.83,0.01-1.71-0.11-2.23l0-0.01c-0.29-1.26,0.5-2.52,1.76-2.8c1.26-0.29,2.52,0.5,2.8,1.76c0.01,0.06,0.02,0.12,0.03,0.18
			c0.2,1.35,0.12,2.36,0.03,3.4c-0.09,1.03-0.23,2.02-0.41,3c-0.35,1.96-0.83,3.86-1.42,5.74c-0.59,1.88-1.27,3.74-2.16,5.56
			c-0.91,1.81-1.92,3.63-3.67,5.22c-3.34,2.81-7.34,4.18-11.36,4.68c-2.02,0.23-3.95,0.29-5.98,0.17c-1.01-0.06-2.02-0.18-3.02-0.37
			l-0.75-0.15l-0.37-0.09c-0.12-0.03-0.23-0.05-0.46-0.12c-0.79-0.24-1.52-0.71-2.03-1.35c-1.06-1.24-1.34-3.12-0.59-4.64l0.4-0.73
			c0.09-0.18,0.21-0.34,0.29-0.53c0.18-0.37,0.35-0.74,0.5-1.14c0.62-1.56,1-3.32,1.36-5.13c0.36-1.82,0.68-3.71,1.19-5.64
			c0.25-0.96,0.56-1.94,0.93-2.9c0.39-0.98,0.86-1.94,1.42-2.83c2.23-3.61,5.46-6.2,8.72-8.35c3.26-2.18,6.69-3.91,9.94-5.74
			c1.13-0.63,2.55-0.24,3.19,0.89c0.63,1.13,0.24,2.55-0.89,3.19C-329.14,358.98-329.19,359.01-329.24,359.03z"/>
	</g>
	<circle class="st6" cx="-324.36" cy="360.6" r="6.73"/>
	<g>
		<path class="st2" d="M-225.5,255.62c2.72-2.07,5.29-4.39,7.61-6.91c2.32-2.52,4.39-5.26,6.02-8.22c1.62-2.96,2.77-6.16,3.09-9.46
			c0.33-3.29-0.24-6.64-1.59-9.72l0-0.01c-0.28-0.64,0.01-1.39,0.65-1.68c0.62-0.27,1.35-0.01,1.65,0.59
			c1.69,3.36,2.56,7.21,2.36,11.03c-0.18,3.82-1.31,7.53-2.94,10.89c-1.64,3.37-3.75,6.46-6.11,9.3c-2.37,2.84-4.97,5.45-7.81,7.84
			c-0.99,0.83-2.46,0.71-3.3-0.28c-0.83-0.99-0.71-2.46,0.28-3.3c0.03-0.02,0.06-0.05,0.08-0.07L-225.5,255.62z"/>
	</g>
	<g>
		<path class="st2" d="M-183.14,172.9c11.64,3.01,22,10.46,28.48,20.61c1.59,2.55,2.98,5.23,4.04,8.06
			c1.03,2.83,1.83,5.77,2.24,8.76c0.38,2.99,0.54,6.01,0.31,9.02c-0.25,2.99-0.7,5.98-1.54,8.87c-1.63,5.78-4.44,11.26-8.38,15.87
			c-1.99,2.27-4.18,4.42-6.66,6.15c-2.47,1.74-5.08,3.28-7.84,4.46c-5.51,2.39-11.46,3.71-17.5,3.76c-3.01-0.02-6.05-0.28-9.01-1
			c-2.96-0.74-5.84-1.84-8.53-3.36c-1.06-0.6-1.43-1.94-0.83-2.99c0.6-1.06,1.94-1.43,2.99-0.83l0.05,0.03
			c2.29,1.28,4.77,2.23,7.35,2.87c2.59,0.63,5.27,0.85,7.96,0.86c5.38-0.05,10.78-1.26,15.73-3.42c4.95-2.18,9.42-5.34,12.87-9.44
			c3.47-4.08,5.98-8.99,7.44-14.18c0.75-2.59,1.15-5.28,1.37-7.96c0.2-2.69,0.05-5.39-0.29-8.06c-0.37-2.67-1.09-5.25-2.01-7.78
			c-0.96-2.52-2.21-4.91-3.63-7.2c-5.83-9.1-15.29-15.88-25.76-18.55c-1.25-0.32-2.01-1.59-1.69-2.84c0.32-1.25,1.59-2.01,2.84-1.69
			L-183.14,172.9z"/>
	</g>
	<g>
		<path class="st2" d="M-242.62,338.4c8.25,13.18,16.48,26.4,24.12,40.02c3.82,6.81,7.45,13.74,10.85,20.77
			c3.42,7.02,6.65,14.1,9.87,21.18c0.54,1.18,0.02,2.56-1.16,3.1s-2.56,0.02-3.1-1.16l-0.01-0.01c-3.18-7.08-6.37-14.15-9.72-21.12
			c-3.34-6.97-6.88-13.83-10.63-20.59c-7.5-13.52-15.63-26.75-23.81-39.95l0-0.01c-0.61-0.99-0.31-2.29,0.68-2.9
			S-243.23,337.41-242.62,338.4z"/>
	</g>
	<path class="st7" d="M-340.89,392.86c-2.68,12.94-7.89,24.43-13.03,36.65"/>
	<g>
		<path class="st2" d="M-300.87,356.32c18.29-3.02,35.63-11.6,48.85-24.37c0.93-0.9,2.41-0.88,3.31,0.05s0.88,2.41-0.05,3.31
			c-0.01,0.01-0.04,0.03-0.05,0.05c-14.3,13.1-32.57,21.49-51.59,24.13c-0.87,0.12-1.68-0.49-1.8-1.36
			C-302.32,357.25-301.73,356.46-300.87,356.32z"/>
	</g>
</g>
<g>
	<g>
		
			<ellipse transform="matrix(0.3491 -0.9371 0.9371 0.3491 -458.6045 -160.8225)" class="st2" cx="-345.07" cy="249.71" rx="9.81" ry="5.75"/>
	</g>
	<g>
		
			<ellipse transform="matrix(0.3491 -0.9371 0.9371 0.3491 -437.0266 -98.4541)" class="st2" cx="-289.38" cy="265.36" rx="9.81" ry="5.75"/>
	</g>
</g>
<g>
	<path class="st2" d="M-344.36,208.64c20.46-2.51,41.79,2.7,58.82,14.52c17.02,11.81,29.5,29.98,34.41,50.2
		c0.27,1.13-0.42,2.27-1.55,2.54c-1.13,0.27-2.27-0.42-2.54-1.55c0,0,0-0.02-0.01-0.03c-4.42-19.25-16.15-36.81-32.32-48.3
		c-16.17-11.48-36.67-16.89-56.5-14.74c-0.73,0.08-1.39-0.45-1.46-1.18C-345.59,209.38-345.08,208.73-344.36,208.64z"/>
</g>
<circle class="st8" cx="256.16" cy="248.65" r="193.48"/>
<g id="Profile_x5F_Icon_x5F_Current_2_">
	<g>
		<path class="st2" d="M222.12,368.67c-0.91,2.84-0.86,5.93,0.07,8.96c0.48,1.51,1.17,2.99,2.02,4.42c0.88,1.42,1.92,2.77,3.08,4.04
			c2.34,2.54,5.18,4.72,8.26,6.47c0.78,0.43,1.56,0.84,2.37,1.22c0.82,0.4,1.5,0.67,1.93,0.76c0.21,0.05,0.33,0.05,0.32,0.05
			c-0.03,0.01-0.12,0.01-0.28,0.14c-0.22,0.11-0.54,0.59-0.57,0.76c-0.05,0.19,0,0.07-0.03-0.19c-0.04-0.53-0.24-1.45-0.43-2.48
			c-0.19-1.02-0.39-2.31-0.32-3.68c0.08-2.08,0.29-4.14,0.42-5.95c0.05-0.89,0.08-1.72,0.05-2.47c-0.06-0.74-0.14-1.43-0.33-2.12
			c-0.35-1.38-1.1-2.82-1.98-4.29c-1.81-2.99-4.1-5.76-6.62-7.83c-2.54-2.06-5.38-3.35-8.05-3.44c-2.78-0.09-4.95-2.42-4.86-5.19
			c0.09-2.78,2.42-4.95,5.19-4.86c0.28,0.01,0.55,0.04,0.81,0.09l0.3,0.06c2.5,0.51,4.84,1.47,6.9,2.67c2.07,1.22,3.9,2.65,5.5,4.23
			c3.22,3.15,5.62,6.68,7.66,10.41c1.01,1.9,1.95,3.99,2.49,6.4c0.28,1.19,0.4,2.44,0.44,3.63c0.02,1.19-0.07,2.3-0.16,3.34
			c-0.22,2.04-0.46,3.84-0.53,5.64c-0.04,0.58,0.04,1.22,0.19,2.1c0.14,0.88,0.39,1.85,0.5,3.26c0.04,0.71,0.07,1.57-0.25,2.7
			c-0.16,0.55-0.43,1.16-0.83,1.71c-0.39,0.55-0.89,1.02-1.39,1.37c-0.96,0.66-1.99,1-2.99,1.12c-0.98,0.11-1.83,0.02-2.57-0.13
			c-1.47-0.31-2.59-0.82-3.52-1.24c-0.96-0.43-1.9-0.91-2.82-1.41c-3.71-1.98-7.18-4.45-10.27-7.45c-3.07-3-5.78-6.59-7.58-10.84
			c-0.89-2.12-1.55-4.39-1.87-6.75c-0.32-2.36-0.32-4.78-0.02-7.16l0.03-0.21c0.35-2.76,2.87-4.71,5.62-4.36
			c2.76,0.35,4.71,2.87,4.36,5.62C222.28,368.07,222.21,368.39,222.12,368.67z"/>
	</g>
	<g>
		<path class="st2" d="M283.98,292.79c0.99-2.35,2.53-4.34,4.32-5.88c1.82-1.53,3.9-2.63,6.13-3.3c2.23-0.65,4.66-0.84,7.06-0.45
			c2.43,0.41,4.71,1.48,6.55,2.89c3.67,2.87,5.96,7.08,6.24,11.76c0.03,0.58,0.01,1.18-0.01,1.76c-0.07,0.58-0.1,1.21-0.24,1.74
			c-0.13,0.55-0.25,1.1-0.4,1.64c-0.19,0.53-0.39,1.06-0.59,1.59c-0.91,2.06-2.24,3.84-3.72,5.28c-2.98,2.9-6.41,4.53-9.78,5.75
			c-1.7,0.59-3.4,1.05-5.12,1.41c-1.75,0.37-3.28,0.59-4.86,0.87c-3.13,0.52-6.1,1.07-8.78,1.98c-2.68,0.9-4.96,2.21-6.66,4.06
			l-0.06,0.06c-1.2,1.3-3.23,1.39-4.53,0.19c-1.25-1.15-1.37-3.06-0.33-4.36c2.45-3.06,5.82-5.16,9.11-6.48
			c3.32-1.34,6.63-2.13,9.77-2.86c1.55-0.36,3.16-0.71,4.53-1.09c1.39-0.39,2.76-0.84,4.05-1.38c2.57-1.09,4.94-2.52,6.44-4.23
			c0.76-0.84,1.3-1.72,1.63-2.62c0.06-0.23,0.12-0.46,0.2-0.68l0.11-0.7c0.07-0.45,0.05-0.83,0-1.27c-0.12-0.85-0.42-1.75-0.93-2.54
			c-0.51-0.79-1.17-1.49-1.9-1.96c-0.74-0.46-1.46-0.73-2.21-0.79c-0.76-0.05-1.6,0.06-2.41,0.36c-0.81,0.32-1.58,0.8-2.17,1.38
			c-0.58,0.59-0.97,1.25-1.18,1.87c-0.97,2.88-4.09,4.44-6.97,3.47c-2.88-0.97-4.44-4.09-3.47-6.97c0.04-0.13,0.09-0.25,0.14-0.38
			L283.98,292.79z"/>
	</g>
	<g>
		<g>
			<path class="st2" d="M201.61,356.89c1.44-4.45-0.71-10.43-4.41-14.8c-0.94-1.09-1.95-2.09-3.01-2.96c-1-0.79-2.4-1.7-3.75-2.5
				c-2.76-1.64-5.81-3.16-9.04-4.83c-3.21-1.67-6.57-3.57-9.8-6.05c-3.28-2.54-5.97-5.42-8.36-8.53c-2.39-3.1-4.44-6.43-6.13-10.01
				c-0.84-1.78-1.59-3.63-2.21-5.55c-0.64-1.91-1.11-3.92-1.43-5.98l-0.2-1.56l-0.12-1.46c-0.08-0.97-0.1-1.93-0.13-2.9
				c-0.04-1.93,0.02-3.84,0.14-5.75c0.26-3.8,0.81-7.53,1.57-11.17c0.79-3.63,1.74-7.18,2.84-10.66c1.07-3.48,2.28-6.92,3.62-10.31
				c2.65-6.78,5.78-13.36,9.43-19.63c3.64-6.28,7.71-12.29,12.24-17.92c1.12-1.39,3.15-1.61,4.54-0.49
				c1.31,1.06,1.58,2.93,0.66,4.31l-0.02,0.03c-3.87,5.73-7.43,11.65-10.5,17.81c-3.05,6.17-5.78,12.48-7.99,18.97
				c-1.12,3.24-2.11,6.52-2.98,9.83c-0.89,3.31-1.63,6.62-2.2,9.92c-0.58,3.3-0.97,6.59-1.09,9.85c-0.05,1.63-0.06,3.25,0.03,4.85
				c0.05,0.8,0.09,1.6,0.18,2.39l0.13,1.18l0.17,1.06c1.04,5.71,4.08,11.59,8.01,16.48c0.98,1.23,2.02,2.41,3.12,3.49
				c1.1,1.12,2.21,2.1,3.39,3c2.37,1.84,5.21,3.4,8.24,5.03c3.02,1.63,6.3,3.27,9.57,5.32c1.65,1.07,3.2,2.11,4.93,3.57
				c1.61,1.42,3.08,2.96,4.35,4.63c2.52,3.35,4.47,7.13,5.47,11.36c0.48,2.12,0.77,4.33,0.62,6.62c-0.14,2.28-0.69,4.6-1.65,6.76
				c-1,2.25-3.64,3.27-5.89,2.27c-2.1-0.93-3.13-3.29-2.44-5.44L201.61,356.89z"/>
		</g>
	</g>
	<g>
		<path class="st2" d="M270.37,199.51c-4.64-2.92-9.6-5.46-14.71-7.64c-5.11-2.2-10.38-4.05-15.73-5.53
			c-5.35-1.47-10.78-2.63-16.21-3.25c-2.71-0.31-5.42-0.49-8.1-0.5c-1.34,0-2.67,0.02-3.98,0.12c-1.31,0.08-2.63,0.23-3.81,0.41
			c-4.85,0.78-9.41,2.86-13.43,5.94c-2.01,1.54-3.89,3.31-5.66,5.25c-0.88,0.98-1.74,1.99-2.6,3.06c-0.46,0.55-0.81,1.06-1.17,1.55
			l-0.54,0.75l-0.49,0.79c-5.34,8.38-6.78,19.31-4.61,29.17l0.01,0.05c0.65,2.97-1.22,5.9-4.19,6.55c-2.97,0.65-5.9-1.22-6.55-4.19
			l-0.01-0.03c-1.35-6.33-1.56-12.87-0.47-19.24c1.07-6.36,3.4-12.6,7.12-18.04l0.69-1.02l0.75-0.98c0.51-0.66,1.01-1.31,1.48-1.87
			c0.96-1.17,1.98-2.35,3.05-3.49c2.14-2.29,4.49-4.47,7.09-6.41c5.16-3.89,11.43-6.7,18-7.66c1.66-0.24,3.23-0.37,4.79-0.44
			c1.57-0.08,3.12-0.08,4.67-0.05c3.09,0.07,6.14,0.33,9.15,0.74c6.02,0.82,11.89,2.14,17.61,3.9c11.42,3.54,22.39,8.42,32.36,15.28
			c1.85,1.27,2.32,3.81,1.05,5.66c-1.24,1.8-3.68,2.3-5.51,1.14L270.37,199.51z"/>
	</g>
	<g>
		<path class="st2" d="M294.45,210.13c2.63,1.92,4.69,4.03,6.71,6.22c1.99,2.2,3.82,4.51,5.53,6.91c3.43,4.79,6.39,9.94,8.74,15.47
			c2.32,5.53,4.06,11.48,4.45,17.84c0.42,6.31-0.69,13.1-3.78,19.1l-0.03,0.06c-1.39,2.7-4.71,3.77-7.41,2.37
			c-2.7-1.39-3.77-4.71-2.37-7.41c0.06-0.12,0.13-0.24,0.2-0.36c2.39-3.9,3.61-8.55,3.67-13.49c0.09-4.94-0.96-10.09-2.63-15.09
			c-1.69-5.01-4.02-9.89-6.83-14.5c-1.4-2.3-2.92-4.55-4.56-6.66c-1.63-2.09-3.42-4.16-5.25-5.71l-0.09-0.07
			c-1.26-1.06-1.41-2.94-0.35-4.2C291.44,209.41,293.2,209.22,294.45,210.13z"/>
	</g>
	<g>
		<path class="st2" d="M286.37,133.1c-3.33-14.71-13.27-27.97-26.37-35.26c-6.55-3.65-13.84-5.74-21.23-5.85
			c-7.4-0.14-14.87,1.54-21.56,4.76c-6.69,3.21-12.58,8-16.77,13.91c-1.06,1.46-1.98,3.04-2.8,4.61c-0.82,1.55-1.46,3.22-2.02,4.91
			c-1.1,3.39-1.68,7-1.8,10.64c-0.24,7.28,1.39,14.71,4.64,21.22c3.23,6.52,8.14,12.1,14.18,15.76c2.6,1.57,3.43,4.95,1.86,7.55
			c-1.57,2.6-4.95,3.43-7.55,1.86l-0.05-0.03l-0.01,0c-7.94-4.92-14.13-12.24-18.07-20.42c-3.96-8.19-5.84-17.26-5.46-26.34
			c0.2-4.54,0.97-9.09,2.44-13.47c0.75-2.19,1.61-4.35,2.72-6.41c1.09-2.04,2.27-3.99,3.63-5.83c5.38-7.41,12.7-13.14,20.8-16.92
			c8.11-3.78,17.07-5.7,26.04-5.43c4.48,0.13,9,0.83,13.29,2.1c2.15,0.62,4.26,1.38,6.31,2.26c2.05,0.87,4.05,1.86,5.98,2.97
			c15.42,8.86,26.6,24.22,30.35,41.51c0.51,2.37-0.99,4.7-3.36,5.22c-2.35,0.51-4.68-0.97-5.21-3.32L286.37,133.1z"/>
	</g>
	<g>
		<path class="st2" d="M355.74,173.93c4.89-9.64,6.46-20.96,4.89-31.78c-1.55-10.82-6.25-21.24-13.62-29.11
			c-7.34-7.9-17.42-13.24-28.12-15.45c-10.69-2.23-22.08-1.38-32.02,2.83c-2.48,1.05-5.33-0.11-6.38-2.58
			c-1.05-2.48,0.11-5.33,2.58-6.38l0.01-0.01c11.96-5.03,25.3-5.95,37.78-3.33c12.48,2.61,24.35,8.86,33.18,18.36
			c8.84,9.49,14.26,21.71,16.06,34.33c1.8,12.62,0,25.88-5.87,37.44c-1.19,2.34-4.06,3.28-6.4,2.09
			C355.49,179.14,354.55,176.27,355.74,173.93z"/>
	</g>
	<g>
		<g>
			<path class="st2" d="M204.41,175.01c1.41-2.3,2.85-4.8,4.43-7.28c1.59-2.48,3.32-4.97,5.35-7.36c2.03-2.38,4.37-4.67,7.18-6.6
				c2.8-1.93,6.11-3.44,9.66-4.16l0.09-0.02c2.98-0.61,5.89,1.32,6.49,4.3c0.61,2.98-1.32,5.89-4.3,6.49
				c-0.13,0.03-0.28,0.05-0.41,0.07c-2.01,0.25-4,0.94-5.94,2.06c-1.94,1.12-3.81,2.65-5.57,4.43c-1.77,1.78-3.43,3.81-5.04,5.96
				c-1.62,2.16-3.17,4.45-4.89,6.84c-1.37,1.91-4.03,2.34-5.93,0.97c-1.82-1.31-2.3-3.78-1.15-5.66L204.41,175.01z"/>
			<path class="st2" d="M272.02,166.46c-6.08-3.44-12.48-6.02-19.05-7.04c-6.56-1.06-13.25-0.55-19.94,1
				c-2.96,0.69-5.92-1.16-6.6-4.12c-0.69-2.96,1.16-5.92,4.12-6.6c0.1-0.02,0.2-0.04,0.3-0.06l0.05-0.01
				c3.87-0.66,7.85-1.06,11.87-1.06c4.02,0,8.08,0.41,12.02,1.27c3.94,0.86,7.76,2.15,11.37,3.76c3.61,1.61,7.03,3.52,10.28,5.6
				c1.97,1.27,2.55,3.9,1.28,5.87c-1.22,1.9-3.71,2.51-5.66,1.41L272.02,166.46z"/>
		</g>
	</g>
	<g>
		<path class="st2" d="M212.41,361.39c-3.57,1.48-6.89,2.91-9.91,4.59c-1.49,0.86-2.89,1.77-4.13,2.77
			c-1.24,1.01-2.28,2.12-3.1,3.31c-1.62,2.19-2.23,5.6-3.06,9.37c-0.41,1.91-0.84,3.93-1.7,6.04c-0.2,0.53-0.45,1.06-0.72,1.58
			c-0.12,0.26-0.29,0.53-0.44,0.79l-0.23,0.39l-0.06,0.1c-0.01,0.03,0.01-0.02,0.01-0.02c0.02-0.02,0.03-0.05,0.04-0.07
			c0.21-0.45,0.11-0.92-0.13-1.21c-0.13-0.15-0.33-0.3-0.53-0.36c0,0-0.1-0.02-0.03-0.01l0.14,0.03l0.29,0.06l0.58,0.11
			c0.78,0.14,1.57,0.22,2.38,0.27c0.81,0.05,1.64,0.04,2.48,0.01c0.85-0.03,1.71-0.11,2.49-0.23c1.59-0.23,3.12-0.64,4.52-1.23
			c0.7-0.29,1.36-0.64,1.98-1.04c0.31-0.2,0.61-0.41,0.89-0.63c0.26-0.2,0.63-0.5,0.73-0.62c0.67-0.66,1.5-2.04,2.08-3.5
			c0.61-1.48,1.13-3.1,1.52-4.75c0.38-1.66,0.69-3.36,0.84-5.02c0.07-0.83,0.12-1.64,0.11-2.39c-0.01-0.71-0.12-1.52-0.21-1.56
			c-3.45-1.38-5.13-5.3-3.75-8.75c1.38-3.45,5.3-5.13,8.75-3.75c2.35,0.94,3.88,3.06,4.18,5.41l0.65,5.22
			c0.23,1.82,0.06,2.91-0.06,4.07c-0.14,1.13-0.33,2.18-0.56,3.21c-0.46,2.05-0.99,4.03-1.67,5.98c-0.67,1.95-1.43,3.89-2.43,5.81
			c-1.04,1.91-2.11,3.88-4.22,5.78c-0.28,0.24-0.56,0.47-0.78,0.62c-0.23,0.17-0.47,0.35-0.71,0.5c-0.48,0.33-0.97,0.63-1.47,0.91
			c-1,0.56-2.03,1.05-3.08,1.45c-2.1,0.8-4.26,1.28-6.4,1.51c-1.09,0.12-2.11,0.16-3.14,0.2c-1.04,0.03-2.1,0.02-3.16-0.05
			c-1.07-0.07-2.15-0.2-3.22-0.4l-0.8-0.16l-0.4-0.09l-0.2-0.05l-0.37-0.1c-1.1-0.33-2.13-1.01-2.85-1.89
			c-0.73-0.88-1.21-1.94-1.36-3.08c-0.16-1.13,0.02-2.37,0.54-3.41l0.45-0.83c0.08-0.15,0.17-0.28,0.24-0.45
			c0.15-0.32,0.3-0.64,0.43-0.99c0.55-1.38,0.91-3.06,1.27-4.83c0.33-1.8,0.63-3.72,1.14-5.76c0.25-1.02,0.57-2.07,0.97-3.13
			c0.42-1.09,0.93-2.16,1.53-3.16c1.19-2,2.68-3.71,4.25-5.21c1.57-1.5,3.23-2.8,4.91-3.97c3.34-2.37,6.78-4.26,9.88-6.25
			c2.33-1.5,5.44-0.82,6.94,1.51c1.5,2.33,0.82,5.44-1.51,6.94c-0.25,0.16-0.5,0.29-0.76,0.4L212.41,361.39z"/>
	</g>
	<circle class="st9" cx="216.06" cy="360.6" r="6.65"/>
	<g>
		<path class="st2" d="M312.94,253.15c2.55-1.79,5.08-4.09,7.31-6.55c2.24-2.47,4.22-5.16,5.78-8.01c1.56-2.85,2.67-5.88,3.06-8.96
			c0.4-3.08,0.03-6.2-1.13-9.16l-0.02-0.05c-0.6-1.54,0.16-3.28,1.7-3.88c1.43-0.56,3.02,0.05,3.73,1.37
			c1.97,3.65,3.01,7.93,2.95,12.16c-0.04,4.23-1.05,8.34-2.58,12.11c-1.53,3.78-3.55,7.27-5.87,10.52
			c-2.35,3.25-4.92,6.25-8.06,9.06l-0.02,0.02c-2.27,2.03-5.75,1.84-7.78-0.43c-2.03-2.27-1.84-5.75,0.43-7.78
			C312.59,253.42,312.78,253.27,312.94,253.15z"/>
	</g>
	<g>
		<path class="st2" d="M350.79,171.61c3.46-0.42,6.97-0.21,10.26,0.57c3.31,0.74,6.39,2.04,9.26,3.59
			c5.71,3.17,10.53,7.46,14.49,12.41c3.94,4.95,7.16,10.62,8.84,17.06c1.65,6.31,1.84,12.91,0.73,19.26
			c-1.11,6.35-3.52,12.5-7.2,17.9c-1.84,2.7-4,5.2-6.45,7.41c-2.46,2.21-5.16,4.11-8,5.66c-5.69,3.13-11.94,5.05-18.41,5.68
			c-6.45,0.63-13.22-0.1-19.51-2.78c-2.62-1.12-3.84-4.15-2.72-6.78c1.12-2.62,4.16-3.84,6.78-2.72l0.04,0.02l0.02,0.01
			c4.34,1.9,9.41,2.56,14.45,2.1c5.04-0.45,10.07-1.95,14.53-4.36c4.48-2.4,8.22-5.72,11.09-9.87c2.87-4.13,4.82-8.97,5.74-13.99
			c0.92-5.02,0.8-10.24-0.44-15.13c-1.19-4.78-3.73-9.43-6.95-13.52c-3.22-4.09-7.2-7.63-11.59-10.1
			c-4.39-2.45-9.22-3.73-13.78-3.17l-0.03,0c-2.55,0.31-4.88-1.5-5.19-4.06C346.41,174.25,348.23,171.93,350.79,171.61
			L350.79,171.61z"/>
	</g>
	<g>
		<path class="st2" d="M302.1,339.91c7.97,12.68,15.92,25.41,23.31,38.61c3.7,6.59,7.21,13.33,10.52,20.12
			c3.32,6.79,6.46,13.61,9.59,20.41c1.27,2.76,0.06,6.03-2.7,7.29c-2.76,1.27-6.03,0.06-7.29-2.7c-0.01-0.01-0.02-0.05-0.03-0.06
			c-3.04-6.82-6.07-13.61-9.23-20.29c-3.16-6.68-6.47-13.25-10.01-19.73c-7.06-12.97-14.79-25.71-22.57-38.42l-0.01-0.01
			c-1.43-2.33-0.7-5.39,1.64-6.81C297.63,336.91,300.66,337.62,302.1,339.91z"/>
	</g>
	<path class="st10" d="M199.23,394.26c-2.75,12.37-7.77,23.48-12.73,35.25"/>
	<g>
		<path class="st2" d="M239.65,353.04c17.81-3.28,34.52-11.98,47.01-24.53c2.14-2.15,5.63-2.16,7.78-0.02
			c2.15,2.14,2.16,5.63,0.02,7.78c-0.08,0.08-0.16,0.15-0.24,0.23l-0.02,0.02c-15.03,13.32-33.93,21.59-53.43,23.97
			c-2.06,0.25-3.94-1.22-4.19-3.28c-0.24-1.98,1.11-3.79,3.04-4.15L239.65,353.04z"/>
	</g>
</g>
<g>
	<g>
		
			<ellipse transform="matrix(0.3491 -0.9371 0.9371 0.3491 -86.9391 407.9797)" class="st2" cx="250.21" cy="266.57" rx="12.42" ry="7.29"/>
	</g>
	<g>
		
			<ellipse transform="matrix(0.3491 -0.9371 0.9371 0.3491 -106.8422 345.5962)" class="st2" cx="195.35" cy="249.71" rx="12.42" ry="7.29"/>
	</g>
</g>
<g>
	<path class="st2" d="M195.85,206.83c10.44-1.43,21.15-0.81,31.43,1.62c10.29,2.42,20.17,6.73,28.98,12.74
		c17.61,12.03,30.6,30.61,35.84,51.51l0,0.01c0.67,2.68-0.96,5.39-3.63,6.07s-5.39-0.96-6.07-3.63c-0.01-0.04-0.02-0.1-0.03-0.14
		c-4.09-18.57-15.31-35.73-30.89-46.99c-7.79-5.64-16.68-9.8-26.02-12.37c-9.35-2.55-19.19-3.43-28.89-2.53l-0.01,0
		c-1.74,0.16-3.28-1.12-3.44-2.85C192.98,208.56,194.19,207.06,195.85,206.83z"/>
</g>
</svg>
